<svg id="Layer_1" data-name="Layer 1" xmlns="http://www.w3.org/2000/svg" viewBox="0 0 213.54 45.43"><defs><style>.cls-1{fill:#7e3c36;fill-rule:evenodd;}</style></defs><path class="cls-1" d="M154,37.43h2.82V32.11l2.11-1.53,7.17,6.85h3.34l-8.53-8,7.92-5.92h-3.51l-6.68,5.24c-.28.22-.56.46-.85.71s-.58.5-.87.77h-.1V23.48H154v14" transform="translate(-95.09 -4.7)"/><path class="cls-1" d="M169.36,27.42l5.78,9.22a2.6,2.6,0,0,1,.17.29.69.69,0,0,1,0,.1.34.34,0,0,1,0,.09.38.38,0,0,1-.06.18.75.75,0,0,0-.07.12l-.09.13A6.8,6.8,0,0,1,174,38.77a6.76,6.76,0,0,1-1.24.81,7.63,7.63,0,0,1-1.29.56c-.22.07-.43.14-.63.19a4.85,4.85,0,0,1-.58.14L171,42a9.24,9.24,0,0,0,1.49-.32c.3-.09.63-.21,1-.34s.69-.31,1-.5a9.57,9.57,0,0,0,2.66-2.26c.41-.49.84-1.07,1.3-1.73s.93-1.43,1.43-2.28l4.28-7.13h-3L178,33.29c-.19.37-.37.73-.54,1.09-.08.18-.16.36-.24.52s-.15.33-.23.48h-.06c-.14-.31-.29-.64-.47-1-.09-.18-.18-.36-.28-.53s-.19-.35-.29-.52l-3.41-5.91h-3.11" transform="translate(-95.09 -4.7)"/><polyline class="cls-1" points="91.18 32.73 94.03 32.73 94.03 18.04 91.18 18.04 91.18 32.73"/><polyline class="cls-1" points="97.22 32.73 100.07 32.73 100.07 18.04 97.22 18.04 97.22 32.73"/><path class="cls-1" d="M201.2,37.43v-10h-2.85v10Zm-2.72-13.61a1,1,0,0,0-.36.36.76.76,0,0,0-.13.44,1,1,0,0,0,.47.79,2.05,2.05,0,0,0,.54.24,3.71,3.71,0,0,0,.71.09,2.46,2.46,0,0,0,1.33-.33,1.34,1.34,0,0,0,.36-.35.88.88,0,0,0,.12-.44,1,1,0,0,0-.48-.81,1.58,1.58,0,0,0-.56-.24,3,3,0,0,0-.71-.09,2.32,2.32,0,0,0-1.29.34" transform="translate(-95.09 -4.7)"/><path class="cls-1" d="M205,37.43h2.85v-6a2.3,2.3,0,0,1,0-.45c0-.07,0-.15.06-.21l.09-.18a3.16,3.16,0,0,1,1.42-1.32,4.62,4.62,0,0,1,1.1-.4,6.73,6.73,0,0,1,1.31-.15,4,4,0,0,1,2.83.88,2.61,2.61,0,0,1,.62.94,3,3,0,0,1,.19,1.14v5.78h2.85v-6a3.74,3.74,0,0,0-.95-2.62,4.7,4.7,0,0,0-2.19-1.29,10.28,10.28,0,0,0-1.24-.27,7.85,7.85,0,0,0-1.17-.08,9.13,9.13,0,0,0-3.28.58,7.51,7.51,0,0,0-1.14.6,3.46,3.46,0,0,0-.77.68h-.07l-.16-1.64h-2.53c.05.4.08.83.1,1.26q0,.33,0,.69v8.06" transform="translate(-95.09 -4.7)"/><path class="cls-1" d="M235.62,30.14c0-.59,0-1.11,0-1.55,0-.22,0-.42,0-.63s0-.37.06-.54h-2.53l-.1,1.5h-.06a4.46,4.46,0,0,0-1.69-1.17,6.14,6.14,0,0,0-1.4-.39,11.82,11.82,0,0,0-1.81-.16,10,10,0,0,0-3.46.62,6.43,6.43,0,0,0-2.62,1.8,4.53,4.53,0,0,0-.76,1.31,5,5,0,0,0-.27,1.57A4.3,4.3,0,0,0,222.93,36a6.64,6.64,0,0,0,2.12,1,9.66,9.66,0,0,0,2.69.37,9.24,9.24,0,0,0,3.09-.48,6.77,6.77,0,0,0,1.11-.53,3.5,3.5,0,0,0,.79-.66h.07v1.1a3,3,0,0,1-1.43,2.71,5.23,5.23,0,0,1-1.61.61,9,9,0,0,1-2,.2,15,15,0,0,1-2.65-.24c-.4-.08-.75-.16-1.08-.26a8.86,8.86,0,0,1-.88-.31l-.72,1.41a10.81,10.81,0,0,0,2.38.61c.47.07.94.12,1.42.16s.95,0,1.43,0a16.32,16.32,0,0,0,3-.26,11.64,11.64,0,0,0,1.44-.37,7.78,7.78,0,0,0,1.28-.57,4.16,4.16,0,0,0,1.67-1.76,4.67,4.67,0,0,0,.42-1.26,8.41,8.41,0,0,0,.14-1.57V30.14Zm-2.85,3a2.72,2.72,0,0,1-.05.49,2.41,2.41,0,0,1-.08.25,1.22,1.22,0,0,1-.1.24A3.12,3.12,0,0,1,231,35.5a4.62,4.62,0,0,1-1.14.37,6.72,6.72,0,0,1-1.29.13,5.34,5.34,0,0,1-3.47-1.06,3.54,3.54,0,0,1-.88-1.15,3.51,3.51,0,0,1,1-4.16,4.61,4.61,0,0,1,1.48-.76,7.23,7.23,0,0,1,1.88-.26,5.5,5.5,0,0,1,2.6.57,3.73,3.73,0,0,1,.85.62,2.46,2.46,0,0,1,.54.76.82.82,0,0,1,.13.37.71.71,0,0,1,0,.21,1.62,1.62,0,0,1,0,.23v1.79" transform="translate(-95.09 -4.7)"/><path class="cls-1" d="M262.85,34.18A2.83,2.83,0,0,0,263.7,33a4.33,4.33,0,0,0,.21-.77,6.32,6.32,0,0,0,.07-.9c0-.1,0-.23,0-.39s0-.35,0-.57v-.06h2.4v.36a6.1,6.1,0,0,1-.54,2.64,5.16,5.16,0,0,1-.68,1.06,5.93,5.93,0,0,1-1,.9l2.49,2.14h-3.12l-1.15-1a10.16,10.16,0,0,1-2.58,1,12.18,12.18,0,0,1-1.41.24,14.45,14.45,0,0,1-1.5.08,9.88,9.88,0,0,1-5.23-1.26A4.68,4.68,0,0,1,250.09,35a3.07,3.07,0,0,1-.52-1.74,3.42,3.42,0,0,1,1-2.37,6.52,6.52,0,0,1,1.26-1.06,13.83,13.83,0,0,1,1.78-1,5.15,5.15,0,0,1-1.08-1.32,2.92,2.92,0,0,1-.27-.64,3.17,3.17,0,0,1-.09-.67A2.47,2.47,0,0,1,253.65,24a6.28,6.28,0,0,1,1.73-.61,11.85,11.85,0,0,1,2.27-.21,15.43,15.43,0,0,1,1.91.12c.32,0,.64.08,1,.14s.66.12,1,.19v1.7a9.23,9.23,0,0,0-1.77-.53c-.31-.06-.63-.1-.95-.13s-.65,0-1,0a4.94,4.94,0,0,0-2.24.42,1.6,1.6,0,0,0-.62.5,1.07,1.07,0,0,0-.21.64,2.06,2.06,0,0,0,.43,1.16,5.4,5.4,0,0,0,.6.69c.26.26.58.55.95.87l6.1,5.23Zm-8-4.25a6.61,6.61,0,0,0-2,1.44,3,3,0,0,0-.49.78,2.25,2.25,0,0,0-.17.84,2.72,2.72,0,0,0,1.47,2.34,5.65,5.65,0,0,0,1.66.7,8.86,8.86,0,0,0,2.07.23,8.32,8.32,0,0,0,1.29-.11l.67-.14.65-.19.66-.25.25-.11.24-.11-6.28-5.42" transform="translate(-95.09 -4.7)"/><path class="cls-1" d="M292.12,35.54A11.93,11.93,0,0,1,290,36c-.41.05-.82.09-1.25.11s-.85,0-1.3,0a11,11,0,0,1-6.17-1.51,5.25,5.25,0,0,1-1.64-1.76,5,5,0,0,1-.56-2.33,4.92,4.92,0,0,1,2.34-4.26,8.66,8.66,0,0,1,2.7-1.11,14.84,14.84,0,0,1,3.49-.39,18.62,18.62,0,0,1,2.49.17c.37.05.71.11,1,.18s.61.15.87.23l.71-1.47a11.49,11.49,0,0,0-1.87-.4c-.43-.07-.93-.12-1.48-.16s-1.17,0-1.84-.06a15.49,15.49,0,0,0-8.26,2A7.08,7.08,0,0,0,277,27.58a6.12,6.12,0,0,0-.83,3,5.8,5.8,0,0,0,1.43,3.88,8.61,8.61,0,0,0,3.81,2.38,15.69,15.69,0,0,0,2.6.61,22.59,22.59,0,0,0,2.94.21,29.3,29.3,0,0,0,3.51-.21c.5-.07.93-.14,1.31-.21s.7-.16.95-.24l-.55-1.46" transform="translate(-95.09 -4.7)"/><path class="cls-1" d="M297.13,27.84a6.54,6.54,0,0,0-2.79,1.81,4.13,4.13,0,0,0-.78,1.3,4.59,4.59,0,0,0-.28,1.55,4.46,4.46,0,0,0,2.18,3.77,8.17,8.17,0,0,0,2.39,1,11.87,11.87,0,0,0,3,.37,12.33,12.33,0,0,0,3.7-.56,6.93,6.93,0,0,0,2.93-1.74,4.07,4.07,0,0,0,.87-1.34,4.78,4.78,0,0,0,.32-1.68,4.39,4.39,0,0,0-2.09-3.71,7.71,7.71,0,0,0-2.38-1.05,13.13,13.13,0,0,0-3.09-.38,11.84,11.84,0,0,0-3.94.64Zm6.6,1.34a3.92,3.92,0,0,1,1.52,1.47,4.36,4.36,0,0,1,.35.88,2.89,2.89,0,0,1,.11.87,3.54,3.54,0,0,1-1.36,2.79,4.67,4.67,0,0,1-1.51.81,6.59,6.59,0,0,1-1.9.29,5.33,5.33,0,0,1-3.42-1.1,3.61,3.61,0,0,1-1-1.22,3.66,3.66,0,0,1-.35-1.53,3.59,3.59,0,0,1,.5-1.84,3.89,3.89,0,0,1,1.57-1.45,4.38,4.38,0,0,1,1.22-.42,7.71,7.71,0,0,1,1.52-.16,5.64,5.64,0,0,1,2.72.61" transform="translate(-95.09 -4.7)"/><path class="cls-1" d="M108.21,4.7c1.33,0,1.62.78,2.64,1,1.2.23,2-.71,3.39-.43.91.2,1.46,1.07,2.3,1.37s2.53-.66,3.86-.28a2.59,2.59,0,0,1,1.17.94c1.41,1.83-.22,3.09-1.21,4.13,0,.12,0,.23.08.35l1,.12c.05.13.1.26.16.39-1.1,1.26-1.8.78-3.63,1.24-.24.07-.41.34-.81.24a2.43,2.43,0,0,1-1.14-.78c0-.39.06-.78.08-1.17s.45-.33.7-.51a6.49,6.49,0,0,0,1.76-1.9c-.14-.18-.19-.31-.43-.39-.66-.27-2.4.7-3.7.46-.79-.14-1.1-.73-2-.89s-2.15.79-3,1c-1.53.39-2-.58-3,.82l-1.83,3.39c0,.44-.1.88-.16,1.32a4.16,4.16,0,0,1-1.75,2.49,6.38,6.38,0,0,1-2.3,1c-.83.16-1.6-.17-2.38,0a12,12,0,0,0-1.78.47c-.55.19-1.45,0-1.14-.59.69-.23,1.14-.95,1.76-1.32,1.5-.9,3.71-.8,4.67-2.22.43-.63.63-2.58,1-3.39,1.11-2.6,3.12-5.57,5.65-6.78" transform="translate(-95.09 -4.7)"/><path class="cls-1" d="M124.34,18.41a8,8,0,0,1,2.1.31l2.06.32c1.85.64,3.18,2.42,4.71,3.5s2.77,2,4.23,2.91,3,1.45,4.32,2.26c1.8,1.08,3.38,1.06,4,3.38a2,2,0,0,1,.16,1.13l-.28.27c-.61-.15-.86-1.08-1.32-1.44l-1.51-.89c-.73-.3-2.07-.26-2.84-.51l-2-1a19,19,0,0,1-3.8-2.06c-.46-.39-.77-.95-1.25-1.32a42.33,42.33,0,0,0-4.55-3.19,6.35,6.35,0,0,0-4.27-1.2,32.86,32.86,0,0,0-8.79,2.36c-1,.45-2.4,1-2.8,2s1.3,2.71,1.67,3.34a15.6,15.6,0,0,0,1.25,1.87l1.12,1.09c1.54,1.93,2.56,3.07,5.25,3.89a6.3,6.3,0,0,0,1.87.39,5,5,0,0,0,.62-1.09A6.62,6.62,0,0,1,126.05,33l.9-.51c.38-.08.58.1.85-.08.56-.37.8-1.36,1.32-1.83a6.13,6.13,0,0,0,1.48.08.43.43,0,0,0,.19-.39c-.29-.27-.87-.43-.93-.93l.2-.19c1-.65,2.95.87,2.44,2.1s-1.94.65-3.06,1.24v.31c.27.54.9.71.69,1.56-1.38,1-2.91-.5-4.15,0-.9.4-.55,1.89-.9,2.84-.23.62-1,.66-1.71.77a7,7,0,0,1-4-.85c-2.69-1.17-4.1-3.38-5.71-5.64l-1.71-2c-.73-.92-2.89-3.29-2.18-5.1a4.85,4.85,0,0,1,2.22-2,24.5,24.5,0,0,1,3.34-1.86l1.91-.59,2-.74,1.79.08a21.54,21.54,0,0,0,2.09-.62l1.17-.2" transform="translate(-95.09 -4.7)"/><path class="cls-1" d="M98.19,23.84l.35.08a8.26,8.26,0,0,1-.35,2.22,18,18,0,0,0,0,6.9c.76,3.24,3.63,6.93,5.93,8.68.5.32,1,.63,1.52.94l2,1.56,1.37.5,1.75.94a19.31,19.31,0,0,0,10,1.17h.9a30.46,30.46,0,0,0,11.61-5.38,8.46,8.46,0,0,0,1.71-1.36c.91-1.13,1.31-2.67,2.07-4a11.09,11.09,0,0,1,2.76-3.24c.89-.71.4-2.1,2.57-1.59.22.28,1.06,1.75.9,2.29-.26.88-1.67,1.54-2.33,2.07a12.15,12.15,0,0,0-2.5,3.78c-1.41,3.2-2.82,3.89-5.46,5.76a18.34,18.34,0,0,1-3.27,2.07c-1.64.7-3.27,1.07-5,1.75a25.78,25.78,0,0,1-4,.66,9.18,9.18,0,0,1-3.5.39c-1.46-.26-2.51-.8-3.82-1.13-.68-.17-1.39,0-2-.11a17.13,17.13,0,0,1-2.88-1.25,15.15,15.15,0,0,1-2.38-1c-1.36-.91-2.33-2.17-3.58-3.16a14,14,0,0,1-3-2.73c-.37-.52-.41-1.38-.74-1.94a23.29,23.29,0,0,1-1.52-2.89l-.51-2.1c0-.43,0-.86,0-1.29a13.8,13.8,0,0,1-.54-2.29c.06-.28.13-.55.19-.82l.12-1.83a5.29,5.29,0,0,1,1.75-3.63" transform="translate(-95.09 -4.7)"/></svg>